<?xml version="1.0" encoding="UTF-8"?>
<!DOCTYPE svg PUBLIC "-//W3C//DTD SVG 1.1//EN" "http://www.w3.org/Graphics/SVG/1.1/DTD/svg11.dtd">
<!-- Creator: CorelDRAW X7 -->
<svg xmlns="http://www.w3.org/2000/svg" xml:space="preserve" width="120px" height="125px" version="1.1" shape-rendering="geometricPrecision" text-rendering="geometricPrecision" image-rendering="optimizeQuality" fill-rule="evenodd" clip-rule="evenodd"
viewBox="0 0 121 127"
 xmlns:xlink="http://www.w3.org/1999/xlink">
 <g id="Layer_x0020_1">
  <metadata id="CorelCorpID_0Corel-Layer"/>
  <g>
   <polygon fill="#E6B012" points="2,2 119,2 119,124 2,124 "/>
   <path id="1" fill="#994F14" fill-rule="nonzero" d="M119 5l-117 0 0 -5 117 0 2 2 -2 3zm0 -5l2 0 0 2 -2 -2zm-3 124l0 -122 5 0 0 122 -2 3 -3 -3zm5 0l0 3 -2 0 2 -3zm-119 -2l117 0 0 5 -117 0 -2 -3 2 -2zm0 5l-2 0 0 -3 2 3zm3 -125l0 122 -5 0 0 -122 2 -2 3 2zm-5 0l0 -2 2 0 -2 2z"/>
  </g>
  <path fill="#994F14" fill-rule="nonzero" d="M58 70c0,5 -2,9 -6,12 -3,3 -7,4 -12,4 -1,0 -3,0 -4,0 -1,-1 -3,-1 -6,-2 -2,-1 -4,-1 -5,-1 -1,0 -2,1 -2,3l-2 0 0 -19 2 0c0,3 1,6 2,8 2,2 4,4 6,6 3,1 5,2 8,2 3,0 6,-1 8,-3 2,-1 4,-4 4,-6 0,-3 -2,-6 -5,-9 -2,-1 -5,-3 -10,-5 -4,-3 -7,-5 -9,-6 -4,-3 -6,-7 -6,-12 0,-4 1,-8 5,-11 3,-2 7,-4 11,-4 3,0 6,1 10,3 1,0 2,1 3,1 1,0 2,-2 3,-4l1 0 0 20 -1 0c-1,-7 -4,-12 -8,-14 -3,-2 -5,-2 -8,-2 -2,0 -5,0 -7,2 -2,2 -3,4 -3,6 0,2 1,3 2,5 2,2 6,5 12,8 5,3 7,4 9,5 3,2 5,5 6,7 1,2 2,4 2,6z"/>
  <path fill="#994F14" fill-rule="nonzero" d="M106 48l-1 0c-2,0 -4,0 -5,2 0,1 -1,3 -1,6l0 47 -1 0 -33 -45 0 34c0,4 1,6 1,7 1,1 3,2 5,2l1 0 0 1 -17 0 0 -1 2 0c2,0 4,-1 5,-3 0,-1 0,-3 0,-6l0 -39c-1,-1 -2,-2 -3,-3 0,-1 -2,-1 -3,-2 -1,0 -2,0 -3,0l0 -2 13 0 30 42 0 -32c0,-4 0,-6 -1,-7 -1,-1 -2,-1 -4,-1l-2 0 0 -2 17 0 0 2z"/>
 </g>
</svg>
