<?xml version="1.0" encoding="UTF-8"?>
<!DOCTYPE svg PUBLIC "-//W3C//DTD SVG 1.1//EN" "http://www.w3.org/Graphics/SVG/1.1/DTD/svg11.dtd">
<!-- Creator: CorelDRAW X7 -->
<svg xmlns="http://www.w3.org/2000/svg" xml:space="preserve" width="220px" height="35px" version="1.1" shape-rendering="geometricPrecision" text-rendering="geometricPrecision" image-rendering="optimizeQuality" fill-rule="evenodd" clip-rule="evenodd"
viewBox="0 0 222 36"
 xmlns:xlink="http://www.w3.org/1999/xlink">
 <g id="Layer_x0020_1">
  <metadata id="CorelCorpID_0Corel-Layer"/>
  <path fill="#994F14" fill-rule="nonzero" d="M5 22c2,0 4,0 5,-1 2,-2 3,-4 3,-5 0,-3 -1,-5 -5,-7l-1 -1c-3,-2 -3,-3 -3,-4 0,-2 1,-3 3,-3 3,0 3,1 4,2 1,0 1,1 1,1 0,1 0,1 0,1 0,0 0,0 0,-1 0,-2 0,-3 0,-3 0,0 0,0 0,-1 -1,0 -2,0 -4,0 -4,0 -7,2 -7,5 0,3 1,4 4,7l2 1c2,2 3,3 3,4 0,2 -2,3 -4,3 -2,0 -4,0 -5,-2 0,-1 0,-1 0,-2 0,0 0,0 0,0 -1,0 -1,0 -1,0 0,1 0,3 0,4 0,1 0,1 1,1 1,1 2,1 4,1z"/>
  <path id="1" fill="#994F14" fill-rule="nonzero" d="M24 20c1,1 1,2 1,2 1,0 1,-1 2,-2 0,-1 1,-4 3,-7 2,-3 2,-4 4,-7 0,-1 1,-1 1,-2 0,0 1,0 1,0 1,0 1,0 1,0 0,0 0,0 -1,0 -1,0 -2,0 -2,0 -1,0 -2,0 -3,0 -1,0 -1,0 -1,0 0,0 0,0 0,0 1,0 1,0 1,0 1,0 1,0 1,1 0,0 0,0 0,0 -1,2 -5,10 -6,12l0 0 -5 -11c0,0 0,-1 0,-1 0,-1 0,-1 0,-1 0,0 1,0 1,0 0,0 1,0 1,0 0,0 -1,0 -1,0 -1,0 -3,0 -4,0 0,0 -2,0 -4,0 0,0 0,0 0,0 0,0 0,0 0,0 0,0 1,0 1,0 1,0 2,1 2,2l7 14z"/>
  <path id="2" fill="#994F14" fill-rule="nonzero" d="M40 15c0,2 0,4 0,5 -1,0 -1,1 -1,1 0,0 -1,0 -1,0 -1,0 -1,0 -1,0 0,0 1,0 1,0 0,0 1,0 2,0 0,0 1,0 1,0 1,0 2,0 4,0 1,0 3,0 5,0 1,0 1,0 1,0 0,-1 0,-2 0,-3 0,0 0,0 0,0 0,0 0,0 0,0 0,1 -1,2 -1,2 -1,0 -2,0 -3,0 -3,0 -4,0 -4,-2 0,-1 0,-3 0,-3l0 -2c0,0 0,-1 1,-1 0,0 3,1 4,1 1,0 1,0 1,1 0,0 0,0 0,0 0,0 1,1 1,1 0,0 0,-1 0,-1 0,0 0,-1 0,-2 0,-1 0,-1 0,-1 0,0 0,-1 0,-1 0,0 0,1 0,1 -1,0 -1,0 -2,0 0,0 -4,0 -4,0 -1,0 -1,0 -1,0l0 -6c0,0 0,0 1,0 0,0 3,0 4,0 1,0 1,0 2,1 0,0 0,1 0,1 0,0 0,0 0,0 0,0 0,0 0,0 0,-1 1,-2 1,-2 0,-1 0,-1 0,-1 0,-1 0,-1 0,-1 -1,0 -1,0 -1,0 0,0 0,1 -1,1 -1,0 -7,0 -7,0 -1,0 -3,0 -4,0 -1,0 -1,0 -1,0 0,0 0,0 0,0 1,0 1,0 1,0 1,0 2,1 2,1 0,1 0,2 0,5l0 5z"/>
  <path id="3" fill="#994F14" fill-rule="nonzero" d="M61 15c0,2 0,4 0,5 0,0 0,1 -1,1 0,0 0,0 -1,0 0,0 0,0 0,0 0,0 0,0 1,0 1,0 3,0 3,0 1,0 3,0 5,0 0,0 0,0 0,0 0,0 0,0 0,0 -1,0 -1,0 -2,0 -1,0 -1,-1 -1,-1 0,-1 0,-3 0,-5l0 -10 4 0c2,0 3,1 3,1l0 1c0,0 0,0 0,0 0,0 0,0 0,0 0,-1 0,-3 0,-3 0,0 0,-1 0,-1 0,0 0,0 -1,0 0,1 -1,1 -1,1l-12 0c0,0 -2,0 -2,-1 -1,0 -1,0 -2,0 0,0 0,0 0,1 0,0 0,2 0,3 0,0 0,0 0,0 0,0 0,0 0,0 0,-1 0,-1 1,-1 0,-1 1,-1 2,-1l4 0 0 10z"/>
  <path id="4" fill="#994F14" fill-rule="nonzero" d="M77 15c0,2 0,4 0,5 0,0 0,1 0,1 -1,0 -1,0 -1,0 -1,0 -1,0 -1,0 0,0 0,0 1,0 1,0 3,0 3,0 1,0 3,0 5,0 0,0 0,0 0,0 0,0 0,0 0,0 -1,0 -1,0 -2,0 0,0 -1,-1 -1,-1 0,-1 0,-3 0,-5l0 -5c0,-3 0,-4 0,-5 0,0 1,-1 1,-1 1,0 1,0 1,0 0,0 1,0 1,0 0,0 -1,0 -1,0 -1,0 -3,0 -4,0 0,0 -2,0 -3,0 -1,0 -1,0 -1,0 0,0 0,0 1,0 0,0 0,0 1,0 0,0 0,1 0,1 0,1 0,2 0,5l0 5z"/>
  <path id="5" fill="#994F14" fill-rule="nonzero" d="M102 6l0 0c0,1 4,4 7,7 3,3 7,6 9,8 1,0 1,1 1,1 1,0 1,-1 1,-1l0 -18c0,-1 0,-2 1,-2 1,0 1,0 1,0 1,0 1,0 1,0 0,-1 0,-1 -1,-1 -1,0 -3,0 -3,0 -1,0 -2,0 -4,0 0,0 -1,0 -1,1 0,0 1,0 1,0 0,0 1,0 2,0 0,0 1,1 1,3l0 12 0 0c-1,0 -5,-4 -7,-6 -5,-4 -9,-9 -10,-9 0,-1 -1,-1 -1,-1 0,0 0,0 0,1l-1 16c0,3 0,4 -1,4 0,0 -1,0 -1,0 0,0 0,0 0,0 0,0 0,0 0,0 2,0 3,0 4,0 0,0 1,0 4,0 0,0 0,0 0,0 0,0 0,0 0,0 -1,0 -1,0 -2,0 -1,0 -1,-1 -1,-3l0 -12z"/>
  <path id="6" fill="#994F14" fill-rule="nonzero" d="M129 15c0,2 0,4 -1,5 0,0 0,1 0,1 -1,0 -1,0 -1,0 -1,0 -1,0 -1,0 0,0 0,0 1,0 1,0 3,0 3,0 1,0 3,0 5,0 0,0 0,0 0,0 0,0 0,0 0,0 -1,0 -1,0 -2,0 0,0 -1,-1 -1,-1 0,-1 0,-3 0,-5l0 -5c0,-3 0,-4 0,-5 0,0 1,-1 1,-1 1,0 1,0 1,0 0,0 1,0 1,0 0,0 -1,0 -1,0 -1,0 -3,0 -4,0 0,0 -2,0 -3,0 -1,0 -1,0 -1,0 0,0 0,0 1,0 0,0 0,0 1,0 0,0 0,1 1,1 0,1 0,2 0,5l0 5z"/>
  <path id="7" fill="#994F14" fill-rule="nonzero" d="M145 10c0,-3 0,-4 0,-5 0,0 0,-1 1,-1 0,0 0,0 1,0 0,0 0,0 0,0 0,0 0,0 0,0 -1,0 -3,0 -4,0 -1,0 -2,0 -4,0 0,0 -1,0 -1,0 0,0 1,0 1,0 0,0 1,0 1,0 1,0 1,1 1,1 0,1 0,2 0,5l0 5c0,2 0,4 0,5 0,0 0,1 -1,1 0,0 0,0 -1,0 0,0 0,0 0,0 0,0 0,0 0,0 2,0 3,0 4,0 1,0 3,0 4,0 0,0 1,0 1,0 0,0 0,0 -1,0 0,0 -1,0 -1,0 -1,0 -1,-1 -1,-1 0,-1 0,-3 0,-5l0 -3 0 0 0 1c1,0 6,6 7,7 2,1 2,1 4,1 1,0 1,0 2,0l2 0c1,0 1,0 1,0 0,0 0,0 0,0 -1,0 -1,0 -2,0 -2,-1 -3,-2 -4,-3 -1,-1 -6,-6 -7,-7 0,-1 5,-4 5,-5 2,-1 2,-1 3,-2 1,0 2,0 2,0 0,0 0,0 0,0 0,0 0,0 0,0 -1,0 -2,0 -3,0 -1,0 -3,0 -3,0 0,0 -1,0 -1,0 0,0 1,0 1,0 0,0 0,0 0,0 0,1 0,1 -1,2 -1,1 -5,5 -6,5l0 0 0 -1z"/>
  <path id="8" fill="#994F14" fill-rule="nonzero" d="M171 22c7,0 12,-5 12,-10 0,-5 -5,-9 -12,-9 -8,0 -11,5 -11,9 0,5 3,10 11,10zm1 -2c-5,0 -8,-3 -8,-8 0,-6 4,-8 7,-8 4,0 8,4 8,9 0,7 -5,7 -7,7z"/>
  <path id="9" fill="#994F14" fill-rule="nonzero" d="M192 10c0,-3 0,-4 0,-5 0,0 0,-1 1,-1 0,0 0,0 1,0 0,0 0,0 0,0 0,0 0,0 0,0 -1,0 -4,0 -4,0 -1,0 -3,0 -4,0 -1,0 -1,0 -1,0 0,0 0,0 1,0 0,0 0,0 1,0 1,0 1,1 1,1 0,1 0,2 0,5l0 5c0,2 0,4 0,5 0,0 -1,1 -1,1 0,0 -1,0 -1,0 0,0 0,0 0,0 0,0 0,0 0,0 1,0 1,0 2,0 1,0 1,0 2,0 1,0 2,0 3,0 2,0 3,0 5,0 2,0 2,0 2,0 0,-1 0,-3 0,-3 0,0 0,0 0,0 0,0 0,0 0,0 0,0 -1,1 -1,1 -1,1 -2,1 -3,1 -2,0 -3,0 -4,0 0,-1 0,-2 0,-5l0 -5z"/>
  <path id="10" fill="#994F14" fill-rule="nonzero" d="M213 15c1,0 1,0 1,1l2 4c0,1 0,1 0,1 -1,0 -1,0 -1,0 0,0 1,0 1,0 2,0 4,0 5,0 1,0 1,0 1,0 0,0 0,0 0,0 0,0 -1,0 -1,0 0,0 -1,-1 -2,-3 -2,-3 -7,-13 -7,-14 -1,-1 -1,-1 -1,-1 0,0 -1,0 -1,1l-7 15c-1,1 -1,2 -2,2 -1,0 -1,0 -1,0 0,0 0,0 0,0 0,0 0,0 0,0 1,0 3,0 3,0 1,0 2,0 3,0 1,0 1,0 1,0 0,0 0,0 -1,0l0 0c-1,0 -1,0 -1,-1 0,0 0,-1 0,-1l2 -3c0,-1 0,-1 0,-1l6 0zm-6 -1c0,0 0,0 0,0l3 -6c0,0 0,0 0,0 0,0 0,0 0,0l3 6c0,0 0,0 0,0l-6 0z"/>
  <path fill="#2B2A29" fill-rule="nonzero" d="M62 32c0,0 0,0 0,0l0 0c0,-1 0,-2 0,-2 0,0 0,0 1,0 0,0 0,0 0,0 0,0 0,0 0,0 0,-1 0,-1 0,-1 0,0 -1,0 -1,0 0,0 -1,0 -1,0 0,0 0,0 0,1 0,0 0,0 0,0 0,0 0,0 0,0 0,0 0,0 0,0 0,0 0,1 0,2l0 1c0,1 0,2 0,2 0,0 0,0 0,0 0,0 0,0 0,0 0,0 0,0 0,1 0,0 0,0 0,0 0,0 1,0 1,0 0,0 1,0 1,0 0,0 0,0 0,0 0,-1 0,-1 0,-1 0,0 0,0 0,0 0,0 -1,0 -1,0 0,0 0,-1 0,-2l0 0c0,-1 0,-1 0,-1l4 0c0,0 0,0 0,1l0 0c0,1 0,2 0,2 0,0 -1,0 -1,0 0,0 0,0 0,0 0,0 0,0 0,1 0,0 0,0 0,0 0,0 1,0 1,0 0,0 1,0 1,0 0,0 1,0 1,0 0,-1 -1,-1 -1,-1 0,0 0,0 0,0 0,0 0,0 0,0 0,0 0,-1 0,-2l0 -1c0,-1 0,-2 0,-2 0,0 0,0 0,0 0,0 0,0 0,0 0,0 0,0 0,0 0,-1 0,-1 0,-1 0,0 -1,0 -1,0 0,0 -1,0 -1,0 0,0 0,0 0,1 0,0 0,0 0,0 0,0 0,0 0,0 0,0 1,0 1,0 0,0 0,1 0,2l0 0c0,0 0,0 0,0l-4 0z"/>
  <path id="1" fill="#2B2A29" fill-rule="nonzero" d="M72 36c2,0 3,-2 3,-4 0,-1 -1,-3 -3,-3 -3,0 -4,2 -4,4 0,1 1,3 4,3zm0 -1c-2,0 -3,-1 -3,-3 0,-2 1,-2 2,-2 2,0 3,1 3,3 0,2 -2,2 -2,2z"/>
  <path id="2" fill="#2B2A29" fill-rule="nonzero" d="M78 33c0,1 0,2 0,2 0,0 0,0 -1,0 0,0 0,0 0,0 0,0 0,0 0,1 0,0 0,0 0,0 0,0 1,0 1,0 0,0 1,0 1,0 0,0 1,0 1,0 0,-1 0,-1 -1,-1 0,0 0,0 0,0 0,0 0,0 0,0 0,0 0,-1 0,-2l0 -3 1 0c0,0 1,0 1,0l0 0c0,1 0,1 0,1 0,0 0,0 0,0 0,-1 0,-1 0,-1 0,-1 0,-1 0,-1 0,0 0,0 0,0 -1,0 -1,0 -1,0l-3 0c0,0 -1,0 -1,0 0,0 0,0 0,0 0,0 0,0 0,0 -1,1 -1,1 -1,1 0,1 0,1 0,1 0,0 0,0 1,-1 0,0 0,0 0,0 0,0 0,0 0,0l2 0 0 3z"/>
  <path id="3" fill="#2B2A29" fill-rule="nonzero" d="M82 33c0,1 0,2 0,2 0,0 0,0 0,0 0,0 0,0 0,0 0,0 0,0 0,1 0,0 0,0 0,0 0,0 0,0 0,0 1,0 1,0 1,0 0,0 0,0 1,0 0,0 0,0 1,0 0,0 0,0 0,-1 1,0 1,0 1,-1 0,0 0,0 0,0 -1,0 -1,0 -1,0 0,1 0,1 0,1 0,0 0,0 -1,0 -1,0 -1,0 -1,-1 0,0 0,0 0,-1l0 0c0,0 0,0 0,0 1,0 1,0 2,0 0,0 0,0 0,0 0,0 0,0 0,0 0,0 0,0 0,0 0,0 0,0 0,0 0,0 0,0 0,0 0,-1 0,-1 0,-1 0,0 0,0 0,0 0,0 0,0 0,0 0,0 0,0 0,0 0,0 -1,0 -2,0 0,0 0,0 0,0l0 -2c0,0 0,0 0,0 1,0 1,0 2,0 0,0 0,0 0,0 0,0 0,0 0,1 0,0 0,0 0,0 0,0 0,0 0,0 0,-1 0,-1 0,-1 0,0 0,0 0,-1 0,0 0,0 0,0 0,0 0,0 0,0 0,0 0,0 0,0 0,0 -2,0 -2,0 0,0 0,0 -1,0 0,0 0,0 0,0 0,0 0,0 0,1 0,0 0,0 0,0 0,0 0,0 0,0 0,0 0,0 0,0 0,0 0,1 0,2l0 1z"/>
  <path id="4" fill="#2B2A29" fill-rule="nonzero" d="M88 32c0,-1 0,-2 0,-2 0,0 1,0 1,0 0,0 0,0 0,0 0,0 0,0 0,0 0,-1 0,-1 0,-1 0,0 -1,0 -1,0 0,0 -1,0 -1,0 0,0 0,0 0,1 0,0 0,0 0,0 0,0 0,0 0,0 0,0 0,0 0,0 0,0 0,1 0,2l0 1c0,1 0,2 0,2 0,0 0,0 0,0 0,0 0,0 0,0 0,0 0,0 0,1 0,0 0,0 0,0 0,0 0,0 0,0 1,0 1,0 1,0 0,0 1,0 1,0 0,0 1,0 1,0 1,0 1,0 1,-1 0,0 0,0 0,-1 0,0 0,0 0,0 0,0 0,0 0,0 0,1 0,1 0,1 -1,0 -1,0 -1,0 -1,0 -1,0 -1,0 -1,0 -1,-1 -1,-2l0 -1z"/>
  <path id="5" fill="#2B2A29" fill-rule="nonzero" d="M94 34c0,1 0,2 2,2 1,0 2,-1 2,-1 1,0 1,1 2,1l1 0c0,0 0,0 0,0 0,-1 0,-1 0,-1 0,0 -1,0 -1,0 0,0 -1,0 -1,-1 0,0 1,-1 1,-2 0,0 -1,0 -1,0 0,0 0,0 -1,0 0,0 0,0 0,0 0,0 0,0 0,0 0,0 1,0 1,0 0,1 0,1 0,1 0,0 0,1 -1,1 0,0 -1,-1 -1,-1 -1,-1 -1,-2 -1,-2 0,-1 0,-1 1,-1 0,0 0,0 0,0 1,0 1,1 1,1 0,0 0,0 0,0 0,0 0,0 0,0 0,0 0,-1 0,-1 0,0 0,0 0,0 0,-1 -1,-1 -1,-1 -2,0 -2,1 -2,2 0,0 0,1 0,1 0,0 -1,1 -1,2zm2 1c0,0 -1,0 -1,-1 0,-1 0,-2 0,-2 1,0 1,1 1,1 1,1 1,1 2,2 0,0 -1,0 -2,0z"/>
  <path id="6" fill="#2B2A29" fill-rule="nonzero" d="M104 33c0,1 0,2 0,2 0,0 0,0 0,0 0,0 0,0 -1,0 0,0 0,0 0,1 0,0 0,0 0,0 1,0 1,0 1,0 1,0 1,0 2,0 0,0 0,0 0,0 0,-1 0,-1 0,-1 0,0 -1,0 -1,0 0,0 0,0 0,0 0,0 0,-1 0,-2l0 0c0,0 0,0 0,0l1 0c0,0 0,0 0,0 0,0 0,1 1,1 0,1 0,1 1,1 0,1 0,1 1,1l0 0c0,0 1,0 1,0 0,-1 0,-1 -1,-1 0,0 0,0 0,0 0,0 0,0 -1,0 0,-1 -1,-1 -1,-2 0,-1 1,-1 1,-2 0,-1 -1,-1 -1,-1 0,0 -1,-1 -1,-1 -1,0 -1,0 -2,0 0,0 0,0 -1,0 0,0 0,0 0,1 0,0 0,0 0,0 0,0 1,0 1,0 0,0 0,0 0,0 0,0 0,1 0,2l0 1zm1 -3c0,0 0,0 0,0 0,0 0,0 0,0 1,0 2,0 2,1 0,1 -1,1 -1,2 0,0 0,0 0,0 -1,0 -1,0 -1,0 0,0 0,0 0,-1l0 -2z"/>
  <path id="7" fill="#2B2A29" fill-rule="nonzero" d="M110 33c0,1 0,2 0,2 0,0 0,0 0,0 0,0 0,0 0,0 -1,0 -1,0 -1,1 0,0 0,0 1,0 0,0 0,0 0,0 0,0 0,0 1,0 0,0 0,0 0,0 1,0 1,0 2,0 0,0 0,0 0,-1 0,0 0,0 0,-1 0,0 0,0 0,0 0,0 0,0 0,0 0,1 0,1 0,1 0,0 -1,0 -1,0 -1,0 -1,0 -1,-1 0,0 0,0 0,-1l0 0c0,0 0,0 0,0 0,0 1,0 1,0 1,0 1,0 1,0 0,0 0,0 0,0 0,0 0,0 0,0 0,0 0,0 0,0 0,0 0,0 0,0 0,-1 0,-1 0,-1 0,0 0,0 0,0 0,0 0,0 0,0 0,0 0,0 -1,0 0,0 -1,0 -1,0 0,0 0,0 0,0l0 -2c0,0 0,0 0,0 0,0 1,0 1,0 1,0 1,0 1,0 0,0 0,0 0,1 0,0 0,0 0,0 0,0 0,0 0,0 0,-1 0,-1 0,-1 0,0 0,0 0,-1 0,0 0,0 0,0 0,0 0,0 0,0 0,0 0,0 0,0 -1,0 -2,0 -2,0 -1,0 -1,0 -1,0 0,0 0,0 -1,0 0,0 0,0 0,1 0,0 0,0 0,0 1,0 1,0 1,0 0,0 0,0 0,0 0,0 0,1 0,2l0 1z"/>
  <path id="8" fill="#2B2A29" fill-rule="nonzero" d="M116 36c0,0 1,0 1,-1 1,0 1,-1 1,-1 0,-1 0,-1 -1,-2l-1 0c0,-1 0,-1 0,-1 0,-1 0,-1 1,-1 0,0 0,0 0,0 1,0 1,1 1,1 0,0 0,0 0,0 0,0 0,0 0,0 0,-1 0,-1 0,-1 0,0 0,-1 0,-1 0,0 -1,0 -1,0 -1,0 -2,1 -2,2 0,1 0,1 1,2l0 0c1,1 1,1 1,1 0,1 0,1 -1,1 0,0 -1,0 -1,-1 0,0 0,0 0,0 0,0 0,0 0,0 0,0 0,0 0,0 0,0 0,1 0,1 0,0 0,0 0,0 0,1 0,1 1,1z"/>
  <path id="9" fill="#2B2A29" fill-rule="nonzero" d="M121 33c0,1 0,2 0,2 0,0 0,0 0,0 0,0 0,0 -1,0 0,0 0,0 0,1 0,0 0,0 0,0 1,0 1,0 1,0 1,0 1,0 2,0 0,0 0,0 0,0 0,-1 0,-1 0,-1 0,0 -1,0 -1,0 0,0 0,0 0,0 0,0 0,-1 0,-2l0 -3 1 0c1,0 1,0 1,0l0 0c0,1 0,1 0,1 0,0 0,0 0,0 0,-1 0,-1 0,-1 0,-1 0,-1 0,-1 0,0 0,0 0,0 0,0 0,0 -1,0l-3 0c0,0 0,0 -1,0 0,0 0,0 0,0 0,0 0,0 0,0 0,1 0,1 0,1 0,1 0,1 0,1 0,0 0,0 0,-1 0,0 0,0 0,0 0,0 0,0 1,0l1 0 0 3z"/>
  <path id="10" fill="#2B2A29" fill-rule="nonzero" d="M127 34c0,0 0,0 0,0l1 1c0,0 0,0 0,0 0,0 0,0 0,1 0,0 0,0 0,0 1,0 1,0 2,0 0,0 0,0 0,0 0,-1 0,-1 0,-1 0,0 0,0 0,0 -1,0 -1,0 -1,0 -1,-2 -2,-5 -2,-5 0,-1 0,-1 0,-1 0,0 0,0 -1,1l-2 5c0,0 0,0 0,0 0,0 0,0 -1,0 0,0 0,0 0,1 0,0 0,0 1,0 0,0 0,0 0,0 1,0 1,0 1,0 0,0 0,0 0,0 0,-1 0,-1 0,-1l0 0c0,0 0,0 0,0 0,0 0,0 0,0l0 -1c0,0 0,0 1,0l1 0zm-1 -1c0,0 0,0 0,0l0 -2c0,0 0,0 0,0 0,0 0,0 0,0l1 2c0,0 0,0 0,0l-1 0z"/>
  <path id="11" fill="#2B2A29" fill-rule="nonzero" d="M130 33c0,1 1,2 1,2 1,1 2,1 2,1 1,0 1,0 2,-1 0,0 0,-1 0,-2l0 -1c0,-1 0,-2 0,-2 0,0 1,0 1,0 0,0 0,0 0,0 0,0 0,0 0,0 0,-1 0,-1 0,-1 0,0 -1,0 -1,0 0,0 0,0 -1,0 0,0 0,0 0,1 0,0 0,0 0,0 0,0 0,0 0,0 1,0 1,0 1,0 0,0 0,1 0,2l0 1c0,1 0,1 -1,2 0,0 0,0 -1,0 0,0 0,0 -1,0 0,0 0,-1 0,-2l0 -1c0,-1 0,-2 0,-2 0,0 0,0 0,0 0,0 0,0 0,0 0,0 0,0 0,0 0,-1 0,-1 0,-1 0,0 -1,0 -1,0 0,0 -1,0 -1,0 0,0 0,0 0,1 0,0 0,0 0,0 0,0 0,0 0,0 0,0 0,0 0,0 0,0 0,1 0,2l0 1z"/>
  <path id="12" fill="#2B2A29" fill-rule="nonzero" d="M138 33c0,1 0,2 0,2 0,0 0,0 -1,0 0,0 0,0 0,0 0,0 0,0 0,1 0,0 0,0 0,0 1,0 1,0 1,0 0,0 1,0 1,0 0,0 1,0 1,0 0,-1 0,-1 -1,-1 0,0 0,0 0,0 0,0 0,0 0,0 0,0 0,-1 0,-2l0 0c0,0 0,0 0,0l0 0c1,0 1,0 1,0 0,0 0,1 0,1 1,1 1,1 2,1 0,1 0,1 0,1l1 0c0,0 0,0 0,0 0,-1 0,-1 0,-1 0,0 0,0 0,0 0,0 0,0 -1,0 0,-1 -1,-1 -2,-2 1,-1 1,-1 1,-2 0,-1 0,-1 0,-1 -1,0 -1,-1 -2,-1 0,0 -1,0 -1,0 0,0 0,0 -1,0 0,0 0,0 0,1 0,0 0,0 0,0 0,0 0,0 0,0 1,0 1,0 1,0 0,0 0,1 0,2l0 1zm1 -3c0,0 0,0 0,0 0,0 0,0 0,0 1,0 1,0 1,1 0,1 0,1 0,2 0,0 0,0 -1,0 0,0 0,0 0,0 0,0 0,0 0,-1l0 -2z"/>
  <path id="13" fill="#2B2A29" fill-rule="nonzero" d="M146 34c0,0 0,0 0,0l1 1c0,0 0,0 0,0 0,0 0,0 0,1 0,0 0,0 0,0 0,0 1,0 1,0 1,0 1,0 1,0 0,-1 0,-1 0,-1 -1,0 -1,0 -1,0 0,0 0,0 0,0 -1,-2 -2,-5 -2,-5 -1,-1 -1,-1 -1,-1 0,0 0,0 0,1l-2 5c0,0 0,0 -1,0 0,0 0,0 0,0 0,0 0,0 0,1 0,0 0,0 0,0 1,0 1,0 1,0 0,0 1,0 1,0 0,0 0,0 0,0 0,-1 0,-1 0,-1l0 0c0,0 0,0 0,0 0,0 0,0 0,0l0 -1c0,0 0,0 0,0l2 0zm-2 -1c0,0 0,0 0,0l1 -2c0,0 0,0 0,0 0,0 0,0 0,0l1 2c0,0 0,0 0,0l-2 0z"/>
  <path id="14" fill="#2B2A29" fill-rule="nonzero" d="M150 31l0 0c0,0 1,1 2,2 1,1 2,2 2,3 0,0 0,0 1,0 0,0 0,0 0,-1l0 -5c0,0 0,0 0,0 0,0 0,0 0,0 0,0 0,0 0,0 0,-1 0,-1 0,-1 0,0 0,0 -1,0 0,0 0,0 -1,0 0,0 0,0 0,1 0,0 0,0 0,0 0,0 1,0 1,0 0,0 0,0 0,0l0 4 0 0c0,0 -1,-1 -2,-2 -1,-1 -2,-2 -2,-2 0,-1 0,-1 0,-1 -1,0 -1,0 -1,1l0 4c0,1 0,1 0,1 0,0 0,0 0,0 0,0 0,0 0,1 0,0 0,0 0,0 0,0 1,0 1,0 0,0 0,0 1,0 0,0 0,0 0,0 0,-1 0,-1 0,-1 0,0 -1,0 -1,0 0,0 0,0 0,-1l0 -3z"/>
  <path id="15" fill="#2B2A29" fill-rule="nonzero" d="M158 33c0,1 0,2 0,2 0,0 0,0 0,0 0,0 0,0 0,0 0,0 0,0 0,1 0,0 0,0 0,0 0,0 1,0 1,0 0,0 1,0 1,0 0,0 0,0 0,0 0,-1 0,-1 0,-1 0,0 0,0 0,0 -1,0 -1,0 -1,0 0,0 0,-1 0,-2l0 -3 1 0c1,0 1,0 1,0l0 0c0,1 0,1 0,1 0,0 0,0 0,0 0,-1 0,-1 0,-1 0,-1 0,-1 0,-1 0,0 0,0 0,0 0,0 0,0 0,0l-4 0c0,0 0,0 0,0 -1,0 -1,0 -1,0 0,0 0,0 0,0 0,1 0,1 0,1 0,1 0,1 0,1 0,0 0,0 0,-1 0,0 0,0 0,0 0,0 1,0 1,0l1 0 0 3z"/>
 </g>
</svg>
